<?xml version="1.0" encoding="UTF-8" standalone="no"?>
<!DOCTYPE svg PUBLIC "-//W3C//DTD SVG 1.1//EN"
 "http://www.w3.org/Graphics/SVG/1.1/DTD/svg11.dtd">
<!-- Generated by graphviz version 10.0.1 (20240210.2158)
 -->
<!-- Pages: 1 -->
<svg width="149pt" height="999pt"
 viewBox="0.00 0.00 149.42 999.22" xmlns="http://www.w3.org/2000/svg" xmlns:xlink="http://www.w3.org/1999/xlink">
<g id="graph0" class="graph" transform="scale(1 1) rotate(0) translate(4 995.22)">
<polygon fill="white" stroke="none" points="-4,4 -4,-995.22 145.42,-995.22 145.42,4 -4,4"/>
<!-- 0 -->
<g id="node1" class="node">
<title>0</title>
<ellipse fill="none" stroke="black" cx="70.71" cy="-952.15" rx="70.71" ry="39.07"/>
<text text-anchor="middle" x="70.71" y="-962.48" font-family="Times New Roman,serif" font-size="14.00">((1.0, 0.0, 0.0),</text>
<text text-anchor="middle" x="70.71" y="-946.73" font-family="Times New Roman,serif" font-size="14.00"> (0.0, 0.0, 0.0),</text>
<text text-anchor="middle" x="70.71" y="-930.98" font-family="Times New Roman,serif" font-size="14.00"> (0.0, 0.0, 0.0))</text>
</g>
<!-- 1 -->
<g id="node2" class="node">
<title>1</title>
<ellipse fill="none" stroke="black" cx="70.71" cy="-838.01" rx="70.71" ry="39.07"/>
<text text-anchor="middle" x="70.71" y="-848.34" font-family="Times New Roman,serif" font-size="14.00">((1.0, 0.0, 0.0),</text>
<text text-anchor="middle" x="70.71" y="-832.59" font-family="Times New Roman,serif" font-size="14.00"> (0.0, 2.0, 0.0),</text>
<text text-anchor="middle" x="70.71" y="-816.84" font-family="Times New Roman,serif" font-size="14.00"> (0.0, 0.0, 0.0))</text>
</g>
<!-- 0&#45;&gt;1 -->
<g id="edge1" class="edge">
<title>0&#45;&gt;1</title>
<path fill="none" stroke="black" d="M70.71,-912.87C70.71,-905.11 70.71,-896.84 70.71,-888.75"/>
<polygon fill="black" stroke="black" points="74.21,-889.01 70.71,-879.01 67.21,-889.01 74.21,-889.01"/>
</g>
<!-- 2 -->
<g id="node3" class="node">
<title>2</title>
<ellipse fill="none" stroke="black" cx="70.71" cy="-723.88" rx="70.71" ry="39.07"/>
<text text-anchor="middle" x="70.71" y="-734.2" font-family="Times New Roman,serif" font-size="14.00">((1.0, 1.0, 0.0),</text>
<text text-anchor="middle" x="70.71" y="-718.45" font-family="Times New Roman,serif" font-size="14.00"> (0.0, 2.0, 0.0),</text>
<text text-anchor="middle" x="70.71" y="-702.7" font-family="Times New Roman,serif" font-size="14.00"> (0.0, 0.0, 0.0))</text>
</g>
<!-- 1&#45;&gt;2 -->
<g id="edge2" class="edge">
<title>1&#45;&gt;2</title>
<path fill="none" stroke="black" d="M70.71,-798.74C70.71,-790.98 70.71,-782.71 70.71,-774.61"/>
<polygon fill="black" stroke="black" points="74.21,-774.88 70.71,-764.88 67.21,-774.88 74.21,-774.88"/>
</g>
<!-- 3 -->
<g id="node4" class="node">
<title>3</title>
<ellipse fill="none" stroke="black" cx="70.71" cy="-609.74" rx="70.71" ry="39.07"/>
<text text-anchor="middle" x="70.71" y="-620.07" font-family="Times New Roman,serif" font-size="14.00">((1.0, 1.0, 2.0),</text>
<text text-anchor="middle" x="70.71" y="-604.32" font-family="Times New Roman,serif" font-size="14.00"> (0.0, 2.0, 0.0),</text>
<text text-anchor="middle" x="70.71" y="-588.57" font-family="Times New Roman,serif" font-size="14.00"> (0.0, 0.0, 0.0))</text>
</g>
<!-- 2&#45;&gt;3 -->
<g id="edge3" class="edge">
<title>2&#45;&gt;3</title>
<path fill="none" stroke="black" d="M70.71,-684.6C70.71,-676.84 70.71,-668.57 70.71,-660.48"/>
<polygon fill="black" stroke="black" points="74.21,-660.74 70.71,-650.74 67.21,-660.74 74.21,-660.74"/>
</g>
<!-- 4 -->
<g id="node5" class="node">
<title>4</title>
<ellipse fill="none" stroke="black" cx="70.71" cy="-495.61" rx="70.71" ry="39.07"/>
<text text-anchor="middle" x="70.71" y="-505.93" font-family="Times New Roman,serif" font-size="14.00">((1.0, 1.0, 2.0),</text>
<text text-anchor="middle" x="70.71" y="-490.18" font-family="Times New Roman,serif" font-size="14.00"> (0.0, 2.0, 0.0),</text>
<text text-anchor="middle" x="70.71" y="-474.43" font-family="Times New Roman,serif" font-size="14.00"> (1.0, 0.0, 0.0))</text>
</g>
<!-- 3&#45;&gt;4 -->
<g id="edge4" class="edge">
<title>3&#45;&gt;4</title>
<path fill="none" stroke="black" d="M70.71,-570.47C70.71,-562.7 70.71,-554.44 70.71,-546.34"/>
<polygon fill="black" stroke="black" points="74.21,-546.61 70.71,-536.61 67.21,-546.61 74.21,-546.61"/>
</g>
<!-- 5 -->
<g id="node6" class="node">
<title>5</title>
<ellipse fill="none" stroke="black" cx="70.71" cy="-381.47" rx="70.71" ry="39.07"/>
<text text-anchor="middle" x="70.71" y="-391.8" font-family="Times New Roman,serif" font-size="14.00">((1.0, 1.0, 2.0),</text>
<text text-anchor="middle" x="70.71" y="-376.05" font-family="Times New Roman,serif" font-size="14.00"> (2.0, 2.0, 0.0),</text>
<text text-anchor="middle" x="70.71" y="-360.3" font-family="Times New Roman,serif" font-size="14.00"> (1.0, 0.0, 0.0))</text>
</g>
<!-- 4&#45;&gt;5 -->
<g id="edge5" class="edge">
<title>4&#45;&gt;5</title>
<path fill="none" stroke="black" d="M70.71,-456.33C70.71,-448.57 70.71,-440.3 70.71,-432.21"/>
<polygon fill="black" stroke="black" points="74.21,-432.47 70.71,-422.47 67.21,-432.47 74.21,-432.47"/>
</g>
<!-- 6 -->
<g id="node7" class="node">
<title>6</title>
<ellipse fill="none" stroke="black" cx="70.71" cy="-267.34" rx="70.71" ry="39.07"/>
<text text-anchor="middle" x="70.71" y="-277.66" font-family="Times New Roman,serif" font-size="14.00">((1.0, 1.0, 2.0),</text>
<text text-anchor="middle" x="70.71" y="-261.91" font-family="Times New Roman,serif" font-size="14.00"> (2.0, 2.0, 1.0),</text>
<text text-anchor="middle" x="70.71" y="-246.16" font-family="Times New Roman,serif" font-size="14.00"> (1.0, 0.0, 0.0))</text>
</g>
<!-- 5&#45;&gt;6 -->
<g id="edge6" class="edge">
<title>5&#45;&gt;6</title>
<path fill="none" stroke="black" d="M70.71,-342.2C70.71,-334.43 70.71,-326.16 70.71,-318.07"/>
<polygon fill="black" stroke="black" points="74.21,-318.34 70.71,-308.34 67.21,-318.34 74.21,-318.34"/>
</g>
<!-- 7 -->
<g id="node8" class="node">
<title>7</title>
<ellipse fill="none" stroke="black" cx="70.71" cy="-153.2" rx="70.71" ry="39.07"/>
<text text-anchor="middle" x="70.71" y="-163.53" font-family="Times New Roman,serif" font-size="14.00">((1.0, 1.0, 2.0),</text>
<text text-anchor="middle" x="70.71" y="-147.78" font-family="Times New Roman,serif" font-size="14.00"> (2.0, 2.0, 1.0),</text>
<text text-anchor="middle" x="70.71" y="-132.03" font-family="Times New Roman,serif" font-size="14.00"> (1.0, 2.0, 0.0))</text>
</g>
<!-- 6&#45;&gt;7 -->
<g id="edge7" class="edge">
<title>6&#45;&gt;7</title>
<path fill="none" stroke="black" d="M70.71,-228.06C70.71,-220.3 70.71,-212.03 70.71,-203.94"/>
<polygon fill="black" stroke="black" points="74.21,-204.2 70.71,-194.2 67.21,-204.2 74.21,-204.2"/>
</g>
<!-- 8 -->
<g id="node9" class="node">
<title>8</title>
<ellipse fill="none" stroke="black" cx="70.71" cy="-39.07" rx="70.71" ry="39.07"/>
<text text-anchor="middle" x="70.71" y="-49.39" font-family="Times New Roman,serif" font-size="14.00">((1.0, 1.0, 2.0),</text>
<text text-anchor="middle" x="70.71" y="-33.64" font-family="Times New Roman,serif" font-size="14.00"> (2.0, 2.0, 1.0),</text>
<text text-anchor="middle" x="70.71" y="-17.89" font-family="Times New Roman,serif" font-size="14.00"> (1.0, 2.0, 1.0))</text>
</g>
<!-- 7&#45;&gt;8 -->
<g id="edge8" class="edge">
<title>7&#45;&gt;8</title>
<path fill="none" stroke="black" d="M70.71,-113.93C70.71,-106.16 70.71,-97.89 70.71,-89.8"/>
<polygon fill="black" stroke="black" points="74.21,-90.07 70.71,-80.07 67.21,-90.07 74.21,-90.07"/>
</g>
</g>
</svg>
